<svg xmlns="http://www.w3.org/2000/svg" viewBox="0 0 32 32" enable-background="new 0 0 32 32"><path fill="#fff" d="M16.03 0c-8.839 0-16.03 7.179-16.03 15.999 0 8.823 7.191 16.001 16.03 16.001 8.84 0 15.97-7.178 15.97-16.001 0-8.82-7.13-15.999-15.97-15.999zm-14.413 15.999c0-2.084.449-4.065 1.249-5.854l6.875 18.802c-4.808-2.333-8.124-7.253-8.124-12.948zm14.413 14.388c-1.414 0-2.78-.208-4.071-.587l4.324-12.542 4.368 12.114.104.198c-1.497.527-3.046.817-4.725.817zm1.925-21.132c.868-.045 1.649-.136 1.649-.136.776-.092.685-1.232-.092-1.186 0 0-2.273.183-3.779.183-1.417 0-3.795-.183-3.795-.183-.779-.047-.87 1.14-.094 1.186 0 0 .735.091 1.512.136l2.246 6.142-3.155 9.44-5.248-15.582c.868-.045 1.65-.136 1.65-.136.775-.092.685-1.232-.092-1.186 0 0-2.333.183-3.841.183-.271 0-.589-.007-.928-.019 2.577-3.904 7.007-6.483 12.042-6.483 3.752 0 7.108 1.433 9.672 3.777l-.187-.011c-1.415 0-2.419 1.23-2.419 2.554 0 1.186.684 2.188 1.414 3.374.549.958 1.188 2.188 1.188 3.967 0 1.23-.475 2.659-1.096 4.649l-1.439 4.795-5.208-15.464zm5.26 19.179l4.402-12.703c.821-2.053 1.096-3.694 1.096-5.152 0-.53-.036-1.021-.097-1.479 1.125 2.048 1.765 4.399 1.765 6.9 0 5.307-2.881 9.94-7.166 12.434z"/></svg>