<svg width="3664" height="1812" viewBox="0 0 3664 1812" fill="none" xmlns="http://www.w3.org/2000/svg">
<g clip-path="url(#clip0_416_48)">
<rect width="3664" height="1812" fill="white"/>
<path d="M349.903 1327.49C349.903 1339.55 340.131 1349.32 328.075 1349.32C316.018 1349.32 306.244 1339.55 306.244 1327.49C306.244 1315.44 316.018 1305.66 328.075 1305.66C340.131 1305.66 349.903 1315.44 349.903 1327.49Z" fill="#3B9F6F"/>
<path d="M396.074 1421.42C390.008 1420.38 365.724 1416.17 364.37 1415.72C362.817 1415.2 364.37 1415.72 363.853 1414.94C363.34 1414.17 342.153 1369.47 340.085 1367.15C338.02 1364.82 332.335 1358.88 324.328 1356.3C316.319 1353.72 308.309 1357.85 308.309 1357.85C308.309 1357.85 268.524 1380.58 265.942 1381.87C263.356 1383.16 261.034 1387.82 261.034 1387.82L242.461 1422.73C240.939 1424.65 240.024 1427.07 240.024 1429.71C240.024 1435.91 245.057 1440.95 251.262 1440.95C256.567 1440.95 261.004 1437.26 262.183 1432.32L279.505 1399.57L290.356 1393.5C289.581 1395.83 279.635 1444.26 279.635 1444.26L269.56 1501.62L234.255 1544.15C231.716 1546.52 230.12 1549.88 230.12 1553.63C230.12 1560.78 235.924 1566.59 243.08 1566.59C247.439 1566.59 251.289 1564.43 253.637 1561.13C260.105 1553.52 292.639 1515.28 295.779 1511.56C299.267 1507.43 300.17 1505.36 300.687 1502.65C301.204 1499.94 307.017 1464.93 307.017 1464.93L340.341 1498.26V1557.03H340.409C341.081 1563.61 346.637 1568.74 353.392 1568.74C360.144 1568.74 365.701 1563.61 366.369 1557.03H366.437C366.437 1557.03 366.435 1556.61 366.429 1555.89C366.429 1555.82 366.437 1555.76 366.437 1555.69C366.437 1555.61 366.425 1555.52 366.425 1555.44C366.363 1546.48 366.088 1501.89 366.437 1491.8C366.823 1480.56 362.815 1478.11 361.914 1477.07C361.008 1476.04 329.879 1442.97 329.879 1442.97L336.722 1409.78C336.722 1409.78 345.638 1427.21 346.539 1429.15C347.445 1431.09 350.287 1434.58 353.254 1435.22C356.229 1435.87 393.301 1443.36 393.301 1443.36L393.318 1443.28C393.861 1443.36 394.414 1443.45 394.982 1443.45C401.095 1443.45 406.05 1438.5 406.05 1432.38C406.052 1426.64 401.668 1421.98 396.074 1421.42L396.074 1421.42Z" fill="#3B9F6F"/>
<path d="M-1400 2209H-116V1603.25H1168V997.5H2452V391.75H3736V-214H5020" stroke="black" stroke-width="72"/>
<path d="M2256.52 319.169C2270.14 323.846 2277.39 338.678 2272.71 352.299C2268.04 365.921 2253.2 373.171 2239.58 368.494C2225.96 363.817 2218.71 348.985 2223.39 335.363C2228.06 321.742 2242.9 314.492 2256.52 319.169" fill="#3B9F6F"/>
<path d="M2293.75 463.364L2264.98 447.567C2261.4 445.609 2258.91 442.124 2258.22 438.106L2250.22 391.275C2249.73 385.467 2246.61 380.201 2241.75 376.981C2236.89 373.759 2230.83 372.94 2225.29 374.755C2219.75 376.57 2215.34 380.819 2213.33 386.291V386.967C2213.11 387.603 2212.92 388.252 2212.77 388.91L2189.25 466.491C2187.94 470.341 2187.87 474.513 2189.07 478.402C2190.27 482.293 2192.67 485.704 2195.93 488.145L2229.44 516.305L2210.54 571.891C2209.71 574.556 2210.34 577.462 2212.19 579.549C2214.04 581.637 2216.85 582.604 2219.6 582.097C2222.34 581.59 2224.62 579.685 2225.61 577.072L2254.42 514.386H2254.27C2255.54 512.043 2256.02 509.352 2255.64 506.716C2255.26 504.08 2254.04 501.634 2252.16 499.743L2224 463.134L2233.69 438.41L2238.39 452.8C2238.5 453.173 2238.62 453.538 2238.76 453.898L2238.99 454.574C2239.89 456.687 2241.43 458.463 2243.4 459.643L2284.94 480.398C2285.25 480.565 2285.57 480.716 2285.9 480.848C2289.02 482.25 2292.66 481.881 2295.44 479.877C2298.21 477.874 2299.71 474.541 2299.36 471.134C2299.02 467.726 2296.88 464.764 2293.76 463.359L2293.75 463.364Z" fill="#3B9F6F"/>
<path d="M2192.91 376.46C2185.22 374.207 2174.04 389.33 2171.79 397.017L2156.75 448.439L2184.6 456.577L2199.53 405.044C2201.87 397.442 2200.6 378.715 2192.91 376.462L2192.91 376.46Z" fill="#3B9F6F"/>
<path d="M2170.47 455.73C2167.73 454.909 2164.78 455.21 2162.27 456.567C2159.75 457.926 2157.88 460.229 2157.06 462.969C2155.38 468.6 2158.78 494.845 2158.78 494.845C2158.78 494.845 2175.99 474.823 2177.71 469.135H2177.71C2178.53 466.398 2178.23 463.446 2176.87 460.932C2175.51 458.416 2173.21 456.546 2170.47 455.73V455.73Z" fill="#3B9F6F"/>
<line x1="2084.47" y1="674.097" x2="2114.1" y2="627.534" stroke="#3B9F6F" stroke-width="10" stroke-linecap="round"/>
<line x1="2139.73" y1="736.907" x2="2156.32" y2="684.266" stroke="#3B9F6F" stroke-width="10" stroke-linecap="round"/>
<line x1="2219.36" y1="712.707" x2="2223.15" y2="657.645" stroke="#3B9F6F" stroke-width="10" stroke-linecap="round"/>
</g>
<defs>
<clipPath id="clip0_416_48">
<rect width="3664" height="1812" fill="white"/>
</clipPath>
</defs>
</svg>
