<?xml version="1.0" encoding="utf-8"?>
<!-- Generator: Adobe Illustrator 17.0.0, SVG Export Plug-In . SVG Version: 6.00 Build 0)  -->
<!DOCTYPE svg PUBLIC "-//W3C//DTD SVG 1.1//EN" "http://www.w3.org/Graphics/SVG/1.1/DTD/svg11.dtd">
<svg version="1.1" id="Calque_1" xmlns="http://www.w3.org/2000/svg" xmlns:xlink="http://www.w3.org/1999/xlink" x="0px" y="0px"
	 width="100.5px" height="100.5px" viewBox="0 0 100.5 100.5" enable-background="new 0 0 100.5 100.5" xml:space="preserve">
<g>
	<path fill="#231E1B" d="M49.412,7.271c-24.328,0-44.056,19.724-44.056,44.056c0,19.465,12.624,35.979,30.128,41.805
		c2.201,0.408,3.01-0.956,3.01-2.12c0-1.05-0.041-4.521-0.06-8.203c-12.256,2.665-14.843-5.198-14.843-5.198
		c-2.004-5.092-4.892-6.446-4.892-6.446c-3.998-2.734,0.301-2.678,0.301-2.678c4.424,0.311,6.753,4.54,6.753,4.54
		c3.929,6.735,10.306,4.788,12.821,3.662c0.396-2.847,1.537-4.791,2.797-5.891C31.587,69.685,21.3,65.907,21.3,49.026
		c0-4.81,1.721-8.74,4.54-11.825c-0.457-1.11-1.966-5.591,0.427-11.66c0,0,3.7-1.184,12.118,4.517
		c3.515-0.976,7.284-1.466,11.028-1.483c3.744,0.017,7.516,0.507,11.037,1.483c8.409-5.7,12.103-4.517,12.103-4.517
		c2.398,6.069,0.89,10.549,0.432,11.66c2.825,3.085,4.534,7.016,4.534,11.825c0,16.922-10.306,20.647-20.117,21.738
		c1.58,1.367,2.988,4.048,2.988,8.158c0,5.895-0.051,10.639-0.051,12.09c0,1.173,0.793,2.546,3.026,2.114
		c17.496-5.832,30.103-22.341,30.103-41.799C93.469,26.995,73.744,7.271,49.412,7.271z"/>
	<path fill="#231E1B" d="M22.043,70.526c-0.097,0.22-0.442,0.285-0.755,0.135c-0.32-0.144-0.499-0.442-0.396-0.662
		c0.095-0.225,0.44-0.288,0.759-0.137C21.971,70.005,22.153,70.306,22.043,70.526L22.043,70.526z"/>
	<path fill="#231E1B" d="M23.827,72.517c-0.21,0.195-0.621,0.104-0.9-0.204c-0.288-0.307-0.342-0.718-0.129-0.916
		c0.217-0.195,0.615-0.103,0.904,0.204C23.991,71.912,24.047,72.319,23.827,72.517L23.827,72.517z"/>
	<path fill="#231E1B" d="M25.564,75.053c-0.27,0.188-0.712,0.012-0.985-0.38c-0.27-0.392-0.27-0.862,0.006-1.05
		c0.273-0.188,0.708-0.019,0.985,0.37C25.84,74.392,25.84,74.862,25.564,75.053L25.564,75.053z"/>
	<path fill="#231E1B" d="M27.944,77.505c-0.242,0.266-0.756,0.195-1.132-0.169c-0.385-0.355-0.492-0.859-0.251-1.126
		c0.245-0.267,0.762-0.192,1.141,0.169C28.085,76.734,28.201,77.241,27.944,77.505L27.944,77.505z"/>
	<path fill="#231E1B" d="M31.227,78.928c-0.107,0.345-0.602,0.502-1.101,0.355c-0.499-0.151-0.824-0.555-0.724-0.903
		c0.103-0.348,0.601-0.511,1.104-0.354C31.004,78.176,31.33,78.577,31.227,78.928L31.227,78.928z"/>
	<path fill="#231E1B" d="M34.833,79.192c0.012,0.363-0.411,0.665-0.935,0.671c-0.527,0.012-0.953-0.282-0.959-0.64
		c0-0.367,0.414-0.665,0.94-0.674C34.403,78.54,34.833,78.832,34.833,79.192L34.833,79.192z"/>
	<path fill="#231E1B" d="M38.188,78.621c0.063,0.354-0.301,0.718-0.821,0.815c-0.512,0.094-0.985-0.125-1.05-0.477
		c-0.063-0.363,0.307-0.728,0.818-0.821C37.655,78.048,38.122,78.261,38.188,78.621L38.188,78.621z"/>
</g>
</svg>
