<?xml version="1.0" encoding="utf-8"?>
<!-- Generator: Adobe Illustrator 17.0.0, SVG Export Plug-In . SVG Version: 6.00 Build 0)  -->
<!DOCTYPE svg PUBLIC "-//W3C//DTD SVG 1.1//EN" "http://www.w3.org/Graphics/SVG/1.1/DTD/svg11.dtd">
<svg version="1.1" id="Layer_1" xmlns="http://www.w3.org/2000/svg" xmlns:xlink="http://www.w3.org/1999/xlink" x="0px" y="0px"
	 width="169.217px" height="90.072px" viewBox="0 0 169.217 90.072" enable-background="new 0 0 169.217 90.072"
	 xml:space="preserve">
<g>
	<path fill-rule="evenodd" clip-rule="evenodd" d="M42.454,41.474c0-0.542-0.285-1.04-0.753-1.309L29.232,32.99
		c-0.211-0.124-0.447-0.188-0.687-0.198c-0.021,0-0.111,0-0.129,0c-0.238,0.01-0.475,0.074-0.688,0.198L15.26,40.166
		c-0.465,0.269-0.754,0.767-0.754,1.309l0.027,19.322c0,0.268,0.14,0.518,0.376,0.65c0.231,0.139,0.518,0.139,0.748,0l7.41-4.243
		c0.469-0.278,0.754-0.77,0.754-1.307V46.87c0-0.538,0.285-1.036,0.752-1.304l3.155-1.817c0.235-0.136,0.492-0.202,0.755-0.202
		c0.257,0,0.521,0.066,0.749,0.202l3.154,1.817c0.467,0.268,0.753,0.766,0.753,1.304v9.027c0,0.537,0.289,1.031,0.755,1.307
		l7.408,4.243c0.232,0.139,0.522,0.139,0.753,0c0.229-0.132,0.374-0.382,0.374-0.65L42.454,41.474z"/>
	<path fill-rule="evenodd" clip-rule="evenodd" d="M109.034,14.913c-0.233-0.13-0.518-0.127-0.749,0.008
		c-0.23,0.135-0.372,0.382-0.372,0.649v19.135c0,0.188-0.101,0.362-0.263,0.457c-0.163,0.094-0.364,0.094-0.527,0L104,33.363
		c-0.466-0.269-1.039-0.268-1.505,0l-12.474,7.199c-0.466,0.269-0.753,0.766-0.753,1.304v14.4c0,0.538,0.287,1.035,0.753,1.305
		l12.473,7.204c0.466,0.269,1.041,0.269,1.507,0l12.475-7.204c0.466-0.27,0.753-0.767,0.753-1.305V20.37
		c0-0.546-0.295-1.049-0.772-1.315L109.034,14.913z M107.877,51.535c0,0.134-0.072,0.259-0.188,0.326l-4.283,2.469
		c-0.116,0.067-0.26,0.067-0.376,0l-4.283-2.469c-0.117-0.067-0.188-0.191-0.188-0.326V46.59c0-0.134,0.072-0.259,0.188-0.326
		l4.283-2.474c0.117-0.067,0.26-0.067,0.377,0l4.283,2.474c0.116,0.067,0.188,0.192,0.188,0.326V51.535z"/>
	<path fill-rule="evenodd" clip-rule="evenodd" d="M153.661,46.461c0.464-0.269,0.749-0.766,0.749-1.302v-3.49
		c0-0.537-0.286-1.033-0.75-1.303l-12.394-7.196c-0.466-0.271-1.042-0.271-1.509-0.002l-12.469,7.199
		c-0.466,0.269-0.753,0.766-0.753,1.304v14.396c0,0.542,0.29,1.041,0.761,1.309l12.392,7.061c0.457,0.261,1.017,0.264,1.477,0.008
		l7.495-4.166c0.238-0.132,0.386-0.382,0.387-0.653c0.002-0.271-0.143-0.523-0.378-0.658l-12.548-7.202
		c-0.234-0.134-0.378-0.384-0.378-0.653v-4.512c0-0.269,0.144-0.518,0.377-0.652l3.905-2.251c0.232-0.134,0.52-0.134,0.752,0
		l3.907,2.251c0.233,0.134,0.377,0.383,0.377,0.652v3.55c0,0.269,0.144,0.518,0.377,0.652c0.233,0.135,0.521,0.134,0.754-0.001
		L153.661,46.461z"/>
	<path fill-rule="evenodd" clip-rule="evenodd" d="M65.136,33.093c0.466-0.269,1.04-0.269,1.506,0l12.472,7.197
		c0.466,0.269,0.753,0.766,0.753,1.305V56c0,0.538-0.287,1.035-0.753,1.305l-12.472,7.203c-0.466,0.269-1.041,0.269-1.507,0
		l-12.469-7.203C52.2,57.036,51.913,56.538,51.913,56V41.594c0-0.538,0.287-1.035,0.753-1.304L65.136,33.093z"/>
	<path fill-rule="evenodd" clip-rule="evenodd" d="M140.328,45.786c0.089-0.052,0.2-0.052,0.289,0l2.394,1.381
		c0.089,0.052,0.145,0.147,0.145,0.25v2.764c0,0.104-0.055,0.199-0.145,0.25l-2.394,1.381c-0.089,0.052-0.2,0.052-0.289,0
		l-2.392-1.381c-0.089-0.052-0.145-0.147-0.145-0.25v-2.764c0-0.104,0.055-0.199,0.145-0.25L140.328,45.786z"/>
</g>
</svg>
